<?xml version="1.0" encoding="UTF-8" standalone="no"?>
<svg
   xmlns:dc="http://purl.org/dc/elements/1.1/"
   xmlns:cc="http://creativecommons.org/ns#"
   xmlns:rdf="http://www.w3.org/1999/02/22-rdf-syntax-ns#"
   xmlns:svg="http://www.w3.org/2000/svg"
   xmlns="http://www.w3.org/2000/svg"
   id="svg1192"
   version="1.1"
   height="668.10693"
   width="744.04163">
  <metadata
     id="metadata1196">
    <rdf:RDF>
      <cc:Work
         rdf:about="">
        <dc:format>image/svg+xml</dc:format>
        <dc:type
           rdf:resource="http://purl.org/dc/dcmitype/StillImage" />
        <dc:title></dc:title>
      </cc:Work>
    </rdf:RDF>
  </metadata>
  <desc
     id="desc888">/Users/Spak/3D/D20Open.dxf - scale = 540.777317, origin = (0.110527, -0.447618), method = auto</desc>
  <defs
     id="defs902">
    <marker
       style="overflow:visible"
       refY="0"
       refX="0"
       orient="auto"
       id="DistanceX">
      <path
         id="path890"
         style="stroke:#000000;stroke-width:0.5"
         d="M 3,-3 -3,3 M 0,-5 V 5" />
    </marker>
    <pattern
       y="0"
       x="0"
       width="8"
       patternUnits="userSpaceOnUse"
       id="Hatch"
       height="8">
      <path
         id="path893"
         stroke-width="0.25"
         stroke="#000000"
         linecap="square"
         d="M8 4 l-4,4" />
      <path
         id="path895"
         stroke-width="0.25"
         stroke="#000000"
         linecap="square"
         d="M6 2 l-4,4" />
      <path
         id="path897"
         stroke-width="0.25"
         stroke="#000000"
         linecap="square"
         d="M4 0 l-4,4" />
    </pattern>
    <symbol
       id="$MODEL_SPACE" />
    <symbol
       id="$PAPER_SPACE" />
  </defs>
  <g
     transform="translate(-24.81948,-227.02396)"
     style="display:inline"
     id="layer1">
    <path
       id="path6076"
       d="m 214.4357,690.25372 c 58.30208,66.96029 116.60416,133.92062 174.90625,200.88082 30.7832,-72.8385 61.5664,-145.67704 92.34961,-218.51558 -89.08529,5.87825 -178.17058,11.75651 -267.25586,17.63476 z"
       style="display:inline;fill:#bb5e55;fill-opacity:0.65775398;fill-rule:evenodd;stroke:#000000;stroke-width:5;stroke-linecap:butt;stroke-linejoin:miter;stroke-miterlimit:4;stroke-dasharray:none;stroke-opacity:1" />
    <path
       id="path6078"
       d="M 398.6232,889.72834 C 483.43505,844.35204 568.24689,798.97574 653.05874,753.59943 598.68505,726.95294 544.31135,700.30646 489.93765,673.65997 459.4995,745.68276 429.06135,817.70554 398.6232,889.72834 Z"
       style="display:inline;fill:#bb5e55;fill-opacity:0.65775398;fill-rule:evenodd;stroke:#000000;stroke-width:5;stroke-linecap:butt;stroke-linejoin:miter;stroke-miterlimit:4;stroke-dasharray:none;stroke-opacity:1" />
    <path
       id="path6080"
       d="m 532.02359,816.59354 c -25.42001,11.6563 -51.14598,22.8147 -76.19394,35.1714 -9.42787,7.6179 -19.02128,15.0288 -28.49747,22.5864 41.88738,-22.3987 83.77837,-44.7907 125.6543,-67.2109 -6.98763,3.151 -13.97526,6.3021 -20.96289,9.4531 z"
       style="display:inline;fill:#bb5e55;fill-opacity:0.65775398;fill-rule:evenodd;stroke:#000000;stroke-width:5;stroke-linecap:butt;stroke-linejoin:miter;stroke-miterlimit:4;stroke-dasharray:none;stroke-opacity:1" />
    <path
       id="path6082"
       d="m 147.94742,791.09944 c 75.99672,32.1991 151.82995,64.7942 227.92968,96.7539 -56.38932,-64.765 -112.77864,-129.52995 -169.16797,-194.29493 -19.58724,32.51367 -39.17447,65.02735 -58.76171,97.54103 z"
       style="display:inline;fill:#bb5e55;fill-opacity:0.65775398;fill-rule:evenodd;stroke:#000000;stroke-width:5;stroke-linecap:butt;stroke-linejoin:miter;stroke-miterlimit:4;stroke-dasharray:none;stroke-opacity:1" />
    <path
       id="path6084"
       d="m 175.44937,802.88844 c 71.58416,30.1153 142.9307,60.8169 214.45312,91.0899 18.69401,-14.875 37.38802,-29.75 56.08204,-44.625 -90.32813,-15.5514 -180.65625,-31.1029 -270.98438,-46.6543 z"
       style="display:inline;fill:#bb5e55;fill-opacity:0.65775398;fill-rule:evenodd;stroke:#000000;stroke-width:5;stroke-linecap:butt;stroke-linejoin:miter;stroke-miterlimit:4;stroke-dasharray:none;stroke-opacity:1" />
    <path
       id="path6060"
       d="M 212.92007,682.33576 C 302.27294,676.43927 391.6258,670.54279 480.97867,664.6463 433.81005,588.78563 386.64143,512.92495 339.47281,437.06427 297.28856,518.82143 255.10432,600.57859 212.92007,682.33576 Z"
       style="display:inline;fill:#bb5e55;fill-opacity:0.65775398;fill-rule:evenodd;stroke:#000000;stroke-width:5;stroke-linecap:butt;stroke-linejoin:miter;stroke-miterlimit:4;stroke-dasharray:none;stroke-opacity:1" />
    <path
       id="path6064"
       d="m 493.54703,666.50763 c 54.38606,26.6556 108.77213,53.3112 163.1582,79.9668 -14.5625,-93.97591 -29.125,-187.95183 -43.6875,-281.92774 -39.82357,67.32032 -79.64714,134.64063 -119.4707,201.96094 z"
       style="display:inline;fill:#bb5e55;fill-opacity:0.65775398;fill-rule:evenodd;stroke:#000000;stroke-width:5;stroke-linecap:butt;stroke-linejoin:miter;stroke-miterlimit:4;stroke-dasharray:none;stroke-opacity:1" />
    <path
       id="path6068"
       d="M 464.11343,838.61314 C 528.50861,809.44254 592.9038,780.27194 657.29898,751.10138 643.33023,679.95294 629.36148,608.80451 615.39273,537.65607 564.9663,637.97508 514.53986,738.29409 464.11343,838.61314 Z"
       style="display:inline;fill:#bb5e55;fill-opacity:0.65775398;fill-rule:evenodd;stroke:#000000;stroke-width:5;stroke-linecap:butt;stroke-linejoin:miter;stroke-miterlimit:4;stroke-dasharray:none;stroke-opacity:1" />
    <path
       id="path6072"
       d="m 148.07242,789.94314 c 99.72981,17.1719 199.45963,34.3438 299.18945,51.5157 -61.0638,-96.48702 -122.12761,-192.974 -183.19141,-289.46098 -38.66601,79.31511 -77.33203,158.63021 -115.99804,237.94528 z"
       style="display:inline;fill:#bb5e55;fill-opacity:0.65775398;fill-rule:evenodd;stroke:#000000;stroke-width:5;stroke-linecap:butt;stroke-linejoin:miter;stroke-miterlimit:4;stroke-dasharray:none;stroke-opacity:1" />
    <path
       id="path6086"
       d="m 145.22476,780.12094 c 18.81055,-31.22203 37.62109,-62.44404 56.43164,-93.66604 -25.59481,-62.14751 -50.84827,-124.42773 -76.62695,-186.5 6.73177,93.38867 13.46354,186.77734 20.19531,280.16604 z"
       style="display:inline;fill:#bb5e55;fill-opacity:0.65775398;fill-rule:evenodd;stroke:#000000;stroke-width:5;stroke-linecap:butt;stroke-linejoin:miter;stroke-miterlimit:4;stroke-dasharray:none;stroke-opacity:1" />
    <path
       id="path6058"
       d="m 124.74038,477.88654 c 27.26433,66.45963 54.52865,132.91927 81.79297,199.3789 41.73503,-80.88737 83.47006,-161.77474 125.20508,-242.66211 -68.99935,14.42774 -137.9987,28.85547 -206.99805,43.28321 z"
       style="display:inline;fill:#bb5e55;fill-opacity:0.65775398;fill-rule:evenodd;stroke:#000000;stroke-width:5;stroke-linecap:butt;stroke-linejoin:miter;stroke-miterlimit:4;stroke-dasharray:none;stroke-opacity:1" />
    <path
       id="path6062"
       d="M 487.82242,660.49005 C 528.07697,592.43797 568.33153,524.38589 608.58609,456.3338 521.3133,448.77065 434.04051,441.2075 346.76773,433.64435 c 47.01823,75.61523 94.03646,151.23047 141.05469,226.8457 z"
       style="display:inline;fill:#bb5e55;fill-opacity:0.65775398;fill-rule:evenodd;stroke:#000000;stroke-width:5;stroke-linecap:butt;stroke-linejoin:miter;stroke-miterlimit:4;stroke-dasharray:none;stroke-opacity:1" />
    <path
       id="path6066"
       d="m 620.74038,514.65997 c 0.0507,14.54306 3.88206,28.23655 6.62891,42.45508 -2.19529,-14.00464 -4.50631,-29.17467 -6.62891,-42.45508 z"
       style="display:inline;fill:#bb5e55;fill-opacity:0.65775398;fill-rule:evenodd;stroke:#000000;stroke-width:5;stroke-linecap:butt;stroke-linejoin:miter;stroke-miterlimit:4;stroke-dasharray:none;stroke-opacity:1" />
    <path
       id="path6070"
       d="m 270.65835,547.44318 c 61.4668,97.12304 122.9336,194.24609 184.40039,291.36916 51.7819,-103.01304 103.56381,-206.02606 155.34571,-309.03908 -113.2487,5.88997 -226.4974,11.77994 -339.7461,17.66992 z"
       style="display:inline;fill:#bb5e55;fill-opacity:0.65775398;fill-rule:evenodd;stroke:#000000;stroke-width:5;stroke-linecap:butt;stroke-linejoin:miter;stroke-miterlimit:4;stroke-dasharray:none;stroke-opacity:1" />
    <path
       id="path6074"
       d="m 145.05874,777.87284 c 37.73177,-77.39841 75.46355,-154.79685 113.19532,-232.19529 -44.85026,-21.38476 -89.70052,-42.76953 -134.55079,-64.15429 7.11849,98.7832 14.23698,197.5664 21.35547,296.34958 z"
       style="display:inline;fill:#bb5e55;fill-opacity:0.65775398;fill-rule:evenodd;stroke:#000000;stroke-width:5;stroke-linecap:butt;stroke-linejoin:miter;stroke-miterlimit:4;stroke-dasharray:none;stroke-opacity:1" />
    <path
       id="path6048"
       d="m 122.05093,471.87091 c 40.91253,19.33131 81.57135,39.20808 122.60156,58.29688 C 171.68276,455.52728 98.735921,380.86435 25.683743,306.30451 c 32.122396,55.1888 64.244791,110.3776 96.367187,165.5664 z"
       style="fill:#bb5e55;fill-opacity:0.65775398;fill-rule:evenodd;stroke:#000000;stroke-width:5;stroke-linecap:butt;stroke-linejoin:miter;stroke-miterlimit:4;stroke-dasharray:none;stroke-opacity:1" />
    <path
       id="path6050"
       d="M 123.34195,470.00763 C 192.48713,455.54865 261.63231,441.08966 330.77749,426.63068 263.51382,363.93016 196.25015,301.22964 128.98648,238.52912 c -1.88151,77.1595 -3.76302,154.31901 -5.64453,231.47851 z"
       style="fill:#bb5e55;fill-opacity:0.65775398;fill-rule:evenodd;stroke:#000000;stroke-width:5;stroke-linecap:butt;stroke-linejoin:miter;stroke-miterlimit:4;stroke-dasharray:none;stroke-opacity:1" />
    <path
       id="path6052"
       d="m 347.58218,425.68146 c 87.24284,7.56315 174.48568,15.1263 261.72852,22.68945 C 582.14078,375.21596 554.97085,302.06102 527.80093,228.90607 467.72801,294.49787 407.6551,360.08966 347.58218,425.68146 Z"
       style="fill:#bb5e55;fill-opacity:0.65775398;fill-rule:evenodd;stroke:#000000;stroke-width:5;stroke-linecap:butt;stroke-linejoin:miter;stroke-miterlimit:4;stroke-dasharray:none;stroke-opacity:1" />
    <path
       id="path6054"
       d="m 619.30484,454.46857 c 0.48633,19.51432 0.97265,39.02864 1.45898,58.54297 49.07842,-71.24964 98.23748,-142.44387 147.27344,-213.72266 -49.57747,51.72656 -99.15495,103.45313 -148.73242,155.17969 z"
       style="fill:#bb5e55;fill-opacity:0.65775398;fill-rule:evenodd;stroke:#000000;stroke-width:5;stroke-linecap:butt;stroke-linejoin:miter;stroke-miterlimit:4;stroke-dasharray:none;stroke-opacity:1" />
    <path
       id="path6056"
       d="M 273.72476,539.2713 C 385.95588,533.43341 498.187,527.59552 610.41812,521.75763 571.82242,453.10073 533.22671,384.44383 494.63101,315.78693 420.99559,390.28172 347.36018,464.77651 273.72476,539.2713 Z"
       style="fill:#bb5e55;fill-opacity:0.65775398;fill-rule:evenodd;stroke:#000000;stroke-width:5;stroke-linecap:butt;stroke-linejoin:miter;stroke-miterlimit:4;stroke-dasharray:none;stroke-opacity:1" />
  </g>
</svg>
