<?xml version="1.0" encoding="UTF-8" standalone="no"?>
<svg
   xmlns:dc="http://purl.org/dc/elements/1.1/"
   xmlns:cc="http://creativecommons.org/ns#"
   xmlns:rdf="http://www.w3.org/1999/02/22-rdf-syntax-ns#"
   xmlns:svg="http://www.w3.org/2000/svg"
   xmlns="http://www.w3.org/2000/svg"
   xmlns:sodipodi="http://sodipodi.sourceforge.net/DTD/sodipodi-0.dtd"
   xmlns:inkscape="http://www.inkscape.org/namespaces/inkscape"
   id="svg8"
   version="1.1"
   viewBox="0 0 52 31.163788"
   height="31.163788mm"
   width="52mm"
   sodipodi:docname="superscheda.svg"
   inkscape:version="0.92.2 5c3e80d, 2017-08-06">
  <sodipodi:namedview
     pagecolor="#ffffff"
     bordercolor="#666666"
     borderopacity="1"
     objecttolerance="10"
     gridtolerance="10"
     guidetolerance="10"
     inkscape:pageopacity="0"
     inkscape:pageshadow="2"
     inkscape:window-width="1077"
     inkscape:window-height="694"
     id="namedview84"
     showgrid="false"
     inkscape:zoom="1.4755609"
     inkscape:cx="17.959272"
     inkscape:cy="58.892197"
     inkscape:window-x="0"
     inkscape:window-y="0"
     inkscape:window-maximized="0"
     inkscape:current-layer="svg8" />
  <defs
     id="defs2">
    <marker
       id="DistanceX"
       orient="auto"
       refX="0"
       refY="0"
       style="overflow:visible">
      <path
         d="M 3,-3 -3,3 M 0,-5 V 5"
         style="stroke:#000000;stroke-width:0.5"
         id="path836" />
    </marker>
    <pattern
       height="8"
       id="Hatch"
       patternUnits="userSpaceOnUse"
       width="8"
       x="0"
       y="0">
      <path
         d="M8 4 l-4,4"
         linecap="square"
         stroke="#000000"
         stroke-width="0.25"
         id="path839" />
      <path
         d="M6 2 l-4,4"
         linecap="square"
         stroke="#000000"
         stroke-width="0.25"
         id="path841" />
      <path
         d="M4 0 l-4,4"
         linecap="square"
         stroke="#000000"
         stroke-width="0.25"
         id="path843" />
    </pattern>
    <symbol
       id="*Model_Space" />
    <symbol
       id="*Paper_Space" />
    <symbol
       id="*Paper_Space0" />
    <marker
       id="DistanceX-7"
       orient="auto"
       refX="0"
       refY="0"
       style="overflow:visible">
      <path
         d="M 3,-3 -3,3 M 0,-5 V 5"
         style="stroke:#000000;stroke-width:0.5"
         id="path901" />
    </marker>
    <pattern
       height="8"
       id="Hatch-9"
       patternUnits="userSpaceOnUse"
       width="8"
       x="0"
       y="0">
      <path
         d="M8 4 l-4,4"
         linecap="square"
         stroke="#000000"
         stroke-width="0.25"
         id="path904" />
      <path
         d="M6 2 l-4,4"
         linecap="square"
         stroke="#000000"
         stroke-width="0.25"
         id="path906" />
      <path
         d="M4 0 l-4,4"
         linecap="square"
         stroke="#000000"
         stroke-width="0.25"
         id="path908" />
    </pattern>
    <symbol
       id="$MODEL_SPACE" />
    <symbol
       id="$PAPER_SPACE" />
    <marker
       id="DistanceX-4"
       orient="auto"
       refX="0"
       refY="0"
       style="overflow:visible">
      <path
         d="M 3,-3 -3,3 M 0,-5 V 5"
         style="stroke:#000000;stroke-width:0.5"
         id="path27667" />
    </marker>
    <pattern
       height="8"
       id="Hatch-8"
       patternUnits="userSpaceOnUse"
       width="8"
       x="0"
       y="0">
      <path
         d="M8 4 l-4,4"
         linecap="square"
         stroke="#000000"
         stroke-width="0.25"
         id="path27670" />
      <path
         d="M6 2 l-4,4"
         linecap="square"
         stroke="#000000"
         stroke-width="0.25"
         id="path27672" />
      <path
         d="M4 0 l-4,4"
         linecap="square"
         stroke="#000000"
         stroke-width="0.25"
         id="path27674" />
    </pattern>
    <symbol
       id="$MODEL_SPACE-3" />
    <symbol
       id="$PAPER_SPACE-9" />
    <marker
       id="DistanceX-0"
       orient="auto"
       refX="0"
       refY="0"
       style="overflow:visible">
      <path
         d="M 3,-3 -3,3 M 0,-5 V 5"
         style="stroke:#000000;stroke-width:0.5"
         id="path30959" />
    </marker>
    <pattern
       height="8"
       id="Hatch-5"
       patternUnits="userSpaceOnUse"
       width="8"
       x="0"
       y="0">
      <path
         d="M8 4 l-4,4"
         linecap="square"
         stroke="#000000"
         stroke-width="0.25"
         id="path30962" />
      <path
         d="M6 2 l-4,4"
         linecap="square"
         stroke="#000000"
         stroke-width="0.25"
         id="path30964" />
      <path
         d="M4 0 l-4,4"
         linecap="square"
         stroke="#000000"
         stroke-width="0.25"
         id="path30966" />
    </pattern>
    <symbol
       id="$MODEL_SPACE-2" />
    <symbol
       id="$PAPER_SPACE-2" />
    <marker
       id="DistanceX-73"
       orient="auto"
       refX="0"
       refY="0"
       style="overflow:visible">
      <path
         d="M 3,-3 -3,3 M 0,-5 V 5"
         style="stroke:#000000;stroke-width:0.5"
         id="path34566" />
    </marker>
    <pattern
       height="8"
       id="Hatch-7"
       patternUnits="userSpaceOnUse"
       width="8"
       x="0"
       y="0">
      <path
         d="M8 4 l-4,4"
         linecap="square"
         stroke="#000000"
         stroke-width="0.25"
         id="path34569" />
      <path
         d="M6 2 l-4,4"
         linecap="square"
         stroke="#000000"
         stroke-width="0.25"
         id="path34571" />
      <path
         d="M4 0 l-4,4"
         linecap="square"
         stroke="#000000"
         stroke-width="0.25"
         id="path34573" />
    </pattern>
    <symbol
       id="$MODEL_SPACE-9" />
    <symbol
       id="$PAPER_SPACE-0" />
    <marker
       id="DistanceX-2"
       orient="auto"
       refX="0"
       refY="0"
       style="overflow:visible">
      <path
         d="M 3,-3 -3,3 M 0,-5 V 5"
         style="stroke:#000000;stroke-width:0.5"
         id="path38275" />
    </marker>
    <pattern
       height="8"
       id="Hatch-3"
       patternUnits="userSpaceOnUse"
       width="8"
       x="0"
       y="0">
      <path
         d="M8 4 l-4,4"
         linecap="square"
         stroke="#000000"
         stroke-width="0.25"
         id="path38278" />
      <path
         d="M6 2 l-4,4"
         linecap="square"
         stroke="#000000"
         stroke-width="0.25"
         id="path38280" />
      <path
         d="M4 0 l-4,4"
         linecap="square"
         stroke="#000000"
         stroke-width="0.25"
         id="path38282" />
    </pattern>
    <symbol
       id="$MODEL_SPACE-99" />
    <symbol
       id="$PAPER_SPACE-7" />
    <marker
       id="DistanceX-03"
       orient="auto"
       refX="0"
       refY="0"
       style="overflow:visible">
      <path
         d="M 3,-3 -3,3 M 0,-5 V 5"
         style="stroke:#000000;stroke-width:0.5"
         id="path46728" />
    </marker>
    <pattern
       height="8"
       id="Hatch-98"
       patternUnits="userSpaceOnUse"
       width="8"
       x="0"
       y="0">
      <path
         d="M8 4 l-4,4"
         linecap="square"
         stroke="#000000"
         stroke-width="0.25"
         id="path46731" />
      <path
         d="M6 2 l-4,4"
         linecap="square"
         stroke="#000000"
         stroke-width="0.25"
         id="path46733" />
      <path
         d="M4 0 l-4,4"
         linecap="square"
         stroke="#000000"
         stroke-width="0.25"
         id="path46735" />
    </pattern>
    <symbol
       id="$MODEL_SPACE-6" />
    <symbol
       id="$PAPER_SPACE-5" />
  </defs>
  <metadata
     id="metadata5">
    <rdf:RDF>
      <cc:Work
         rdf:about="">
        <dc:format>image/svg+xml</dc:format>
        <dc:type
           rdf:resource="http://purl.org/dc/dcmitype/StillImage" />
        <dc:title />
      </cc:Work>
    </rdf:RDF>
  </metadata>
  <g
     style="display:inline;stroke-linecap:round;stroke-linejoin:round;stroke-width:1.60000004;stroke-miterlimit:4;stroke-dasharray:none"
     id="g38289"
     transform="matrix(0.26458333,0,0,0.26458333,17.074777,-277.77157)" />
  <path
     inkscape:connector-curvature="0"
     style="fill:#76afec;fill-opacity:0.60215053;stroke:#1a4d88;stroke-width:0.42333334;stroke-linecap:round;stroke-linejoin:round;stroke-miterlimit:4;stroke-dasharray:none;stroke-opacity:0.9946234;paint-order:normal"
     d="m 10.366184,6.74498 c -0.05695,-0.14841 0.01795,-0.91783 0.169749,-1.74385 0.139645,-0.75988 0.312172,-1.00472 0.805485,-1.14307 0.774269,-0.21716 13.045659,-2.81892 13.089379,-2.77519 0.0246,0.0246 -4.64118,1.97979 -9.4569,3.96288 -4.648366,1.91418 -4.540494,1.8744 -4.607713,1.69923 z"
     id="path70218" />
  <path
     inkscape:connector-curvature="0"
     style="fill:#76afec;fill-opacity:0.60215053;stroke:#1a4d88;stroke-width:0.42333334;stroke-linecap:round;stroke-linejoin:round;stroke-miterlimit:4;stroke-dasharray:none;stroke-opacity:0.9946234;paint-order:normal"
     d="m 41.102707,6.68298 c -0.55422,-0.18736 -1.55347,-0.59732 -8.70106,-3.5698 -2.56252,-1.06568 -4.62252,-1.9498 -4.57779,-1.96471 0.10708,-0.0357 0.3487,0.0138 6.9584,1.42519 3.11274,0.66468 5.81727,1.26006 6.01007,1.32306 0.50554,0.16522 0.58641,0.35804 0.82249,1.96098 0.0643,0.43638 0.091,0.83967 0.0593,0.89621 -0.0479,0.0856 -0.14371,0.0737 -0.57144,-0.0709 z"
     id="path70222" />
  <path
     inkscape:connector-curvature="0"
     style="fill:#76afec;fill-opacity:0.60215053;stroke:#1a4d88;stroke-width:0.42333334;stroke-linecap:round;stroke-linejoin:round;stroke-miterlimit:4;stroke-dasharray:none;stroke-opacity:0.9946234;paint-order:normal"
     d="m 19.273667,16.7878 c -1.8468,-0.0727 -1.95934,-0.16758 -1.48261,-1.24971 0.3916,-0.88888 6.46674,-11.40719 7.3374,-12.70376 0.3188,-0.47473 0.72955,-0.89381 0.87606,-0.89381 0.16403,0 0.65199,0.5388 1.04507,1.15396 1.11395,1.74326 6.51161,11.08276 7.08545,12.25986 0.23121,0.47428 0.31643,0.73417 0.3011,0.91824 -0.0336,0.40335 -0.22577,0.45537 -1.92955,0.52226 -1.74682,0.0686 -11.44328,0.0634 -13.23292,-0.007 z"
     id="path70220" />
  <path
     inkscape:connector-curvature="0"
     style="display:inline;fill:#76afec;fill-opacity:0.60215053;stroke:#1a4d88;stroke-width:0.42333334;stroke-linecap:round;stroke-linejoin:round;stroke-miterlimit:4;stroke-dasharray:none;stroke-opacity:0.9946234;paint-order:normal"
     d="M 16.200247,15.67893 C 15.942197,15.37225 15.428877,14.2924 13.589387,10.18657 11.449195,5.40956 11.22057,4.82612 11.32531,4.4088 c 0.05611,-0.22355 0.370862,-0.40861 1.005407,-0.59115 1.10853,-0.3189 10.96186,-2.39641 11.91465,-2.51213 0.79874,-0.0971 0.87894,0.0513 0.47873,0.8854 -0.41012,0.85481 -5.96004,10.46443 -7.19396,12.45625 -0.49022,0.79133 -0.86005,1.24951 -1.00858,1.24951 -0.076,0 -0.22054,-0.098 -0.32131,-0.21775 z"
     id="path65690" />
  <path
     inkscape:connector-curvature="0"
     style="display:inline;fill:#76afec;fill-opacity:0.60215053;stroke:#1a4d88;stroke-width:0.42333334;stroke-linecap:round;stroke-linejoin:round;stroke-miterlimit:4;stroke-dasharray:none;stroke-opacity:0.9946234;paint-order:normal"
     d="m 35.266897,15.75656 c -0.37498,-0.37498 -2.32915,-3.64095 -5.84375,-9.76657 -1.74944,-3.04908 -2.39518,-4.26527 -2.39518,-4.51103 0,-0.33332 0.39526,-0.28556 4.37375,0.52852 4.96892,1.01672 8.38539,1.80158 8.84656,2.03227 l 0.41401,0.20712 -0.005,0.40424 c -0.005,0.5127 -0.14095,0.85154 -2.10956,5.25529 -2.74825,6.1479 -2.83303,6.29903 -3.2819,5.85016 z"
     id="path65692" />
  <path
     inkscape:connector-curvature="0"
     style="display:inline;fill:#76afec;fill-opacity:0.60215053;stroke:#1a4d88;stroke-width:0.42333334;stroke-linecap:round;stroke-linejoin:round;stroke-miterlimit:4;stroke-dasharray:none;stroke-opacity:0.9946234;paint-order:normal"
     d="m 25.618947,29.34808 c -0.32868,-0.27093 -1.16277,-1.36322 -2.97532,-3.89635 -3.66047,-5.11575 -4.97886,-7.05201 -5.06324,-7.43616 -0.0674,-0.3067 0.0652,-0.41781 0.59525,-0.49872 0.67414,-0.10298 9.02313,-0.16261 12.6376,-0.0904 3.50341,0.07 3.63826,0.0866 3.63826,0.44926 0,0.37339 -0.4002,0.97748 -4.0694,6.1427 -3.37297,4.74818 -4.00334,5.54928 -4.3666,5.54928 -0.0716,0 -0.24998,-0.0988 -0.39655,-0.21967 z"
     id="path65694" />
  <path
     inkscape:connector-curvature="0"
     style="fill:#76afec;fill-opacity:0.60215053;stroke:#1a4d88;stroke-width:0.42333334;stroke-linecap:round;stroke-linejoin:round;stroke-miterlimit:4;stroke-dasharray:none;stroke-opacity:0.9946234;paint-order:normal"
     d="m 26.327917,29.85023 c -0.0249,-0.13251 -0.0346,-1.01193 -0.0217,-1.95425 l 0.0235,-1.71329 0.19446,-0.16715 c 0.27859,-0.23946 0.76217,-0.35575 6.87593,-1.65361 5.88166,-1.24858 6.71757,-1.41817 6.76353,-1.3722 0.0453,0.0453 -1.29347,0.76786 -6.52062,3.51941 -7.39667,3.89358 -7.22606,3.81566 -7.31509,3.34109 z"
     id="path70224" />
  <path
     inkscape:connector-curvature="0"
     style="fill:#76afec;fill-opacity:0.60215053;stroke:#1a4d88;stroke-width:0.42333334;stroke-linecap:round;stroke-linejoin:round;stroke-miterlimit:4;stroke-dasharray:none;stroke-opacity:0.9946234;paint-order:normal"
     d="m 24.410367,29.66075 c -1.51345,-0.74561 -11.30419,-5.90334 -12.15599,-6.40373 -0.524352,-0.30804 -0.531469,-0.31797 -0.183747,-0.2566 0.545157,0.0962 6.889337,1.41839 9.334557,1.94537 3.84911,0.82954 4.07929,0.90003 4.22955,1.29524 0.076,0.19995 0.0989,3.54277 0.0256,3.73388 -0.0763,0.19896 -0.34605,0.13117 -1.24997,-0.31416 z"
     id="path70226" />
  <path
     inkscape:connector-curvature="0"
     style="display:inline;fill:#76afec;fill-opacity:0.60215053;stroke:#1a4d88;stroke-width:0.42333334;stroke-linecap:round;stroke-linejoin:round;stroke-miterlimit:4;stroke-dasharray:none;stroke-opacity:0.9946234;paint-order:normal"
     d="m 27.027967,29.76606 c 0,-0.16252 1.27863,-2.00645 5.26595,-7.59407 2.2505,-3.15372 2.86351,-3.96137 3.14835,-4.14801 0.35626,-0.23344 0.55047,-0.10485 2.61076,1.72755 1.99219,1.7719 2.64621,2.43093 2.6461,2.66634 -1.4e-4,0.33929 -0.13783,0.41882 -6.68863,3.86396 -6.37903,3.35481 -6.98253,3.65596 -6.98253,3.48423 z"
     id="path68056" />
  <path
     inkscape:connector-curvature="0"
     style="display:inline;fill:#76afec;fill-opacity:0.60215053;stroke:#1a4d88;stroke-width:0.42333334;stroke-linecap:round;stroke-linejoin:round;stroke-miterlimit:4;stroke-dasharray:none;stroke-opacity:0.9946234;paint-order:normal"
     d="m 24.043697,29.43341 c -0.97982,-0.48093 -10.3374,-5.40221 -11.45434,-6.02399 -0.917481,-0.51074 -1.290484,-0.8077 -1.290484,-1.02737 0,-0.18276 0.767338,-0.94477 2.582694,-2.56476 1.53893,-1.37332 2.21545,-1.89778 2.44806,-1.89778 0.28557,0 0.83197,0.67652 3.06102,3.78999 4.0338,5.6343 5.5793,7.8663 5.5793,8.05762 0,0.10609 -0.11309,0.0655 -0.92625,-0.33371 z"
     id="path68058" />
  <path
     inkscape:connector-curvature="0"
     style="display:inline;fill:#76afec;fill-opacity:0.60215053;stroke:#1a4d88;stroke-width:0.42333334;stroke-linecap:round;stroke-linejoin:round;stroke-miterlimit:4;stroke-dasharray:none;stroke-opacity:0.9946234;paint-order:normal"
     d="m 25.802357,24.32155 c -0.18671,-0.12336 -0.39544,-0.37381 -0.73174,-0.87793 -0.44921,-0.67339 -3.38022,-5.65876 -5.16388,-8.7833 -1.88292,-3.29841 -1.99176,-3.49567 -2.20276,-3.99205 -0.38381,-0.90292 -0.2295,-1.04517 1.22792,-1.13192 1.64605,-0.098 13.87836,-0.0692 14.70008,0.0345 0.62022,0.0782 0.86362,0.20696 0.86362,0.45646 0,0.20644 -0.13954,0.57737 -0.4419,1.17443 -0.63997,1.26381 -6.24956,10.93391 -7.04029,12.13641 -0.35472,0.53942 -0.61057,0.85443 -0.79451,0.97825 -0.18584,0.12507 -0.23414,0.12569 -0.41654,0.005 z"
     id="path63268" />
  <path
     inkscape:connector-curvature="0"
     style="display:inline;fill:#76afec;fill-opacity:0.60215053;stroke:#1a4d88;stroke-width:0.42333334;stroke-linecap:round;stroke-linejoin:round;stroke-miterlimit:4;stroke-dasharray:none;stroke-opacity:0.9946234;paint-order:normal"
     d="M 10.733707,21.53804 C 10.595269,21.32412 10.548848,6.03915 10.684657,5.3862 c 0.0708,-0.34039 0.06277,-0.3559 1.82527,3.52794 1.52816,3.36746 2.97533,6.65383 3.17189,7.20304 0.33452,0.93466 0.2777,1.03817 -1.41552,2.57893 -2.975308,2.70738 -3.399049,3.04827 -3.532583,2.84193 z"
     id="path65688" />
  <path
     inkscape:connector-curvature="0"
     style="display:inline;fill:#76afec;fill-opacity:0.60215053;stroke:#1a4d88;stroke-width:0.42333334;stroke-linecap:round;stroke-linejoin:round;stroke-miterlimit:4;stroke-dasharray:none;stroke-opacity:0.9946234;paint-order:normal"
     d="m 40.936837,21.48249 c -0.45225,-0.27505 -4.21132,-3.65785 -4.53225,-4.07862 -0.26425,-0.34645 -0.30174,-0.61516 -0.15044,-1.0784 0.22178,-0.67897 4.01027,-9.19372 4.71195,-10.59022 0.13705,-0.27286 0.27666,-0.49613 0.31013,-0.49613 0.10252,0 0.15814,3.08618 0.1509,8.37254 -0.008,5.47173 -0.0604,7.82087 -0.17876,7.93917 -0.0515,0.0513 -0.15027,0.0297 -0.31158,-0.0683 z"
     id="path65696" />
  <path
     inkscape:connector-curvature="0"
     style="display:inline;fill:#76afec;fill-opacity:0.60215053;stroke:#1a4d88;stroke-width:0.42333334;stroke-linecap:round;stroke-linejoin:round;stroke-miterlimit:4;stroke-dasharray:none;stroke-opacity:0.9946234;paint-order:normal"
     d="m 25.655177,20.56044 c -0.36897,-0.23635 -1.91344,-2.16198 -5.36055,-6.68346 -2.79689,-3.66861 -3.00492,-4.01212 -2.54609,-4.20433 0.56975,-0.23866 15.9311,-0.23866 16.50085,0 0.2977,0.12476 0.25887,0.35 -0.17486,1.01441 -0.43235,0.66229 -0.51836,0.77709 -3.43692,4.58644 -3.55166,4.63564 -4.23285,5.44085 -4.60027,5.43778 -0.0817,-8.2e-4 -0.25371,-0.0686 -0.38216,-0.1509 z"
     id="path68052" />
  <path
     inkscape:connector-curvature="0"
     style="display:inline;fill:#76afec;fill-opacity:0.60215053;stroke:#1a4d88;stroke-width:0.42333334;stroke-linecap:round;stroke-linejoin:round;stroke-miterlimit:4;stroke-dasharray:none;stroke-opacity:0.9946234;paint-order:normal"
     d="m 23.929917,25.00629 c -1.30695,-0.20699 -10.36275,-2.13534 -11.51711,-2.45247 -0.61629,-0.1693 -0.981135,-0.34697 -1.078256,-0.52508 -0.186541,-0.3421 0.0025,-0.87582 1.534296,-4.33653 0.97007,-2.19134 2.2472,-5.00527 2.65585,-5.8517 0.65054,-1.34747 0.86786,-1.59317 1.17818,-1.33205 0.1408,0.11854 0.40403,0.47576 0.73847,1.00237 0.74511,1.17323 6.42091,10.9495 7.08846,12.20952 0.24447,0.46144 0.42196,0.86924 0.45831,1.05311 0.0168,0.0848 0.005,0.14016 -0.0445,0.20068 -0.0921,0.11387 -0.43031,0.12461 -1.01367,0.0322 z"
     id="path63266" />
  <path
     inkscape:connector-curvature="0"
     style="display:inline;fill:#76afec;fill-opacity:0.60215053;stroke:#1a4d88;stroke-width:0.42333334;stroke-linecap:round;stroke-linejoin:round;stroke-miterlimit:4;stroke-dasharray:none;stroke-opacity:0.9946234;paint-order:normal"
     d="m 27.157147,25.042 c -0.0442,-0.0177 -0.0983,-0.0661 -0.1204,-0.1075 -0.0593,-0.11076 0.0958,-0.54162 0.41099,-1.14176 0.41278,-0.78599 3.25992,-5.73514 5.13737,-8.93031 1.77812,-3.02609 2.12337,-3.59593 2.43201,-4.01406 0.53888,-0.73004 0.68941,-0.62581 1.48978,1.03156 0.4445,0.92047 3.26625,7.21455 3.68557,8.22089 0.53116,1.27478 0.63497,1.69109 0.48301,1.93696 -0.12943,0.2093 -0.53895,0.38826 -1.36551,0.59661 -0.83449,0.21036 -5.75472,1.27333 -8.23205,1.77845 -3.17847,0.64809 -3.67564,0.72788 -3.92069,0.62914 z"
     id="path63270" />
  <path
     inkscape:connector-curvature="0"
     style="display:inline;fill:#76afec;fill-opacity:0.60215053;stroke:#1a4d88;stroke-width:0.42333334;stroke-linecap:round;stroke-linejoin:round;stroke-miterlimit:4;stroke-dasharray:none;stroke-opacity:0.9946234;paint-order:normal"
     d="m 41.167257,21.02058 c -0.10874,-0.16339 -0.42764,-0.80714 -0.782,-1.57867 -0.57315,-1.24789 -3.79403,-8.49242 -3.94549,-8.87432 -0.38337,-0.96679 -0.39616,-1.2067 -0.0856,-1.60543 0.25101,-0.32226 1.35544,-1.3555 3.10839,-2.90802 1.42758,-1.26436 1.70281,-1.45795 1.8157,-1.2772 0.0975,0.15622 0.10952,0.39175 0.1369,2.71126 0.0333,2.81467 0.0109,12.80212 -0.03,13.24799 -0.0279,0.30438 -0.0569,0.43381 -0.0974,0.43381 -0.0109,0 -0.0658,-0.0672 -0.12056,-0.14934 z"
     id="path63262" />
  <path
     inkscape:connector-curvature="0"
     style="display:inline;fill:#76afec;fill-opacity:0.60215053;stroke:#1a4d88;stroke-width:0.42333334;stroke-linecap:round;stroke-linejoin:round;stroke-miterlimit:4;stroke-dasharray:none;stroke-opacity:0.9946234;paint-order:normal"
     d="m 10.662743,21.06404 c -0.01509,-0.0454 -0.04404,-1.8522 -0.0645,-4.01496 -0.04079,-4.31359 0.0068,-11.82409 0.07659,-12.08679 0.02091,-0.0787 0.06385,-0.16884 0.09544,-0.20045 0.11921,-0.11916 0.427894,0.10174 1.638454,1.17278 1.22032,1.07966 2.58349,2.33216 2.94549,2.70636 0.64995,0.67186 0.66315,0.81891 0.18026,2.00862 -0.20141,0.49624 -3.44209,7.77715 -3.948877,8.87207 -0.501089,1.08258 -0.790038,1.62506 -0.865595,1.62506 -0.01646,0 -0.04225,-0.0372 -0.05726,-0.0826 z"
     id="path63264" />
  <path
     inkscape:connector-curvature="0"
     style="display:inline;fill:#76afec;fill-opacity:0.60215053;stroke:#1a4d88;stroke-width:0.42333334;stroke-linecap:round;stroke-linejoin:round;stroke-miterlimit:4;stroke-dasharray:none;stroke-opacity:0.9946234;paint-order:normal"
     d="m 1.08232,15.35181 c 0,-0.14032 1.940684,-2.46845 6.130944,-7.35486 2.267295,-2.64397 2.862999,-3.27718 3.149292,-3.34751 0.154493,-0.038 0.279907,3.5e-4 0.525436,0.16045 0.670924,0.43749 4.218515,3.63556 4.505795,4.06185 0.20714,0.30737 0.1497,0.42837 -0.32624,0.6874 -0.43173,0.23499 -6.38763,2.80371 -10.052955,4.33576 -3.762395,1.57262 -3.932272,1.63556 -3.932272,1.45691 z"
     id="path68050" />
  <path
     inkscape:connector-curvature="0"
     style="display:inline;fill:#76afec;fill-opacity:0.60215053;stroke:#1a4d88;stroke-width:0.42333334;stroke-linecap:round;stroke-linejoin:round;stroke-miterlimit:4;stroke-dasharray:none;stroke-opacity:0.9946234;paint-order:normal"
     d="m 50.364347,15.27768 c -0.85505,-0.30729 -8.21856,-3.42406 -12.42157,-5.25772 -1.00499,-0.43845 -1.43327,-0.70574 -1.43327,-0.89452 0,-0.21557 0.30465,-0.53882 1.71164,-1.81616 1.87021,-1.69789 2.75428,-2.44774 3.05292,-2.58946 0.3439,-0.16317 0.54963,-0.0607 1.16933,0.5823 0.89001,0.92349 7.87716,9.13642 8.31828,9.77759 0.27095,0.39381 0.21926,0.41956 -0.39733,0.19797 z"
     id="path68054" />
</svg>
