<?xml version="1.0" encoding="iso-8859-1"?>
<!-- Generator: Adobe Illustrator 19.0.0, SVG Export Plug-In . SVG Version: 6.00 Build 0)  -->
<svg version="1.1" id="Capa_1" xmlns="http://www.w3.org/2000/svg" xmlns:xlink="http://www.w3.org/1999/xlink" x="0px" y="0px"
	 viewBox="0 0 512.001 512.001" style="enable-background:new 0 0 512.001 512.001;" xml:space="preserve">
<g>
	<g>
		<path d="M493.814,0.578L387.913,21.879c-2.999,0.599-5.7,1.8-7.8,3.9L206.105,200.04l18.624,17.959h23.789
			c6.969,0,13.493,2.392,19.387,5.232L451.513,39.878l26.1-5.4l-5.4,26.7L289.008,244.384c2.807,5.867,4.105,12.352,4.105,19.279
			v23.789l18.939,18.534l174.262-174.008c2.098-2.1,3.6-4.799,4.199-7.8l20.4-103.201C515.242,8.005,503.426-2.634,493.814,0.578z"
			/>
	</g>
</g>
<g>
	<g>
		<path d="M301.545,337.905l-37.432-38.027v-36.876c0-8.291-7.304-15-15.595-15h-36.211l-38.042-37.377
			c-17.534-17.563-46.099-17.534-63.633,0l-42.422,42.437c-5.859,5.856-5.859,15.348,0,21.208
			c16.582,16.597,40.283,24.316,63.428,20.991l10.811,10.825l-8.487,8.487c-16.255,5.916-30.387,14.176-43.286,24.586l0.037,0.037
			c-8.771,7.186-13.492,11.78-21.209,21.213l-0.035-0.035c-8.523,10.376-16.223,23.057-21.984,36.782h-2.316
			c-24.814,0-45,20.186-45,45v24.844c0,24.814,20.186,45,45,45h24.858c24.814,0,45-20.186,45-45v-2.303
			c13.526-5.671,25.508-12.873,36.779-21.976l-0.033-0.033c10.126-8.291,13.795-12.146,21.215-21.205l0.029,0.029
			c10.668-13.195,18.813-27.42,24.598-43.297l8.481-8.494l10.825,10.825c-3.267,23.188,4.395,46.846,20.991,63.428
			c5.859,5.859,15.352,5.859,21.211,0l42.422-42.422C319.094,384.003,319.094,355.453,301.545,337.905z M85.126,467
			c0,8.276-6.824,15-15.1,15H45.166c-8.276,0-15.1-6.724-15.1-15v-24.844c0-8.276,6.824-15.2,15.1-15.2h6.226l33.733,33.833V467z"/>
	</g>
</g>
<g>
</g>
<g>
</g>
<g>
</g>
<g>
</g>
<g>
</g>
<g>
</g>
<g>
</g>
<g>
</g>
<g>
</g>
<g>
</g>
<g>
</g>
<g>
</g>
<g>
</g>
<g>
</g>
<g>
</g>
</svg>
