<?xml version="1.0" encoding="UTF-8" standalone="no"?>
<svg
   xmlns:dc="http://purl.org/dc/elements/1.1/"
   xmlns:cc="http://creativecommons.org/ns#"
   xmlns:rdf="http://www.w3.org/1999/02/22-rdf-syntax-ns#"
   xmlns:svg="http://www.w3.org/2000/svg"
   xmlns="http://www.w3.org/2000/svg"
   xmlns:sodipodi="http://sodipodi.sourceforge.net/DTD/sodipodi-0.dtd"
   xmlns:inkscape="http://www.inkscape.org/namespaces/inkscape"
   version="1.1"
   viewBox="0 0 297 297"
   enable-background="new 0 0 297 297"
   id="svg14"
   sodipodi:docname="protest.svg"
   inkscape:version="0.92.2 5c3e80d, 2017-08-06">
  <metadata
     id="metadata20">
    <rdf:RDF>
      <cc:Work
         rdf:about="">
        <dc:format>image/svg+xml</dc:format>
        <dc:type
           rdf:resource="http://purl.org/dc/dcmitype/StillImage" />
      </cc:Work>
    </rdf:RDF>
  </metadata>
  <defs
     id="defs18" />
  <sodipodi:namedview
     pagecolor="#ffffff"
     bordercolor="#666666"
     borderopacity="1"
     objecttolerance="10"
     gridtolerance="10"
     guidetolerance="10"
     inkscape:pageopacity="0"
     inkscape:pageshadow="2"
     inkscape:window-width="1131"
     inkscape:window-height="836"
     id="namedview16"
     showgrid="false"
     inkscape:zoom="0.79461279"
     inkscape:cx="148.5"
     inkscape:cy="148.5"
     inkscape:window-x="164"
     inkscape:window-y="80"
     inkscape:window-maximized="0"
     inkscape:current-layer="svg14" />
  <path
     d="M 124.06836 0 C 114.53936 0 106.48828 6.2267031 106.48828 13.595703 L 106.48828 86.400391 C 106.48828 86.400391 140.33639 86.235391 141.65039 86.400391 L 141.65039 13.595703 C 141.65039 6.2267031 133.60036 1.1842379e-15 124.06836 0 z M 72.699219 21.058594 C 63.170219 21.058594 55.117188 27.285297 55.117188 34.654297 L 55.117188 99.234375 C 64.812188 91.049375 78.05925 86.400391 90.28125 86.400391 L 90.28125 34.654297 C 90.28125 27.285297 82.228219 21.058594 72.699219 21.058594 z M 175.43945 21.060547 C 165.90845 21.060547 157.85938 27.285297 157.85938 34.654297 L 157.85938 93.605469 C 163.00438 97.800469 166.83223 103.5593 168.61523 110.1543 L 175.43945 110.1543 C 184.97045 110.1543 193.02148 103.92859 193.02148 96.558594 L 193.02148 34.654297 C 193.02048 27.285297 184.97045 21.060547 175.43945 21.060547 z M 226.80859 42.119141 C 217.27959 42.119141 209.22852 48.344844 209.22852 55.714844 L 209.22852 96.558594 L 209.22852 117.61719 C 209.22852 124.98719 217.27959 131.21484 226.80859 131.21484 C 236.33959 131.21484 244.39062 124.98719 244.39062 117.61719 L 244.39062 55.714844 C 244.39062 48.344844 236.33959 42.119141 226.80859 42.119141 z M 89.3125 102.60547 C 69.7595 102.60547 52.609375 119.26867 52.609375 138.26367 L 52.609375 178.74219 C 52.609375 198.40319 67.966797 214.39844 86.841797 214.39844 L 91.78125 214.39844 C 96.25625 214.39844 99.884766 218.02791 99.884766 222.50391 C 99.884766 226.97991 96.25525 230.60742 91.78125 230.60742 L 88.242188 230.60742 L 88.242188 283.10742 C 88.242188 290.76742 94.474766 297 102.13477 297 L 200.76367 297 C 208.42367 297 214.6543 290.76842 214.6543 283.10742 L 214.6543 227.85547 C 209.5723 229.63047 204.13652 230.60742 198.47852 230.60742 L 193.53906 230.60742 C 189.06206 230.60742 185.43555 226.97991 185.43555 222.50391 C 185.43555 218.02791 189.06206 214.39844 193.53906 214.39844 L 198.47852 214.39844 C 217.35552 214.39844 232.71289 198.40319 232.71289 178.74219 L 232.71289 146.95117 C 230.79489 147.25317 228.82359 147.41992 226.80859 147.41992 C 209.79059 147.41992 195.67533 136.26269 193.36133 121.80469 C 188.16233 124.68669 182.01945 126.35937 175.43945 126.35938 L 168.7832 126.35938 C 166.5192 135.44438 160.39462 143.00727 152.26562 147.19727 C 162.95462 156.71527 169.73828 170.75439 169.73828 186.40039 L 169.73828 199.80273 C 169.73828 204.27873 166.11177 207.90625 161.63477 207.90625 C 157.15977 207.90625 153.5293 204.27873 153.5293 199.80273 L 153.5293 186.40039 C 153.5293 166.73939 138.17483 150.74219 119.29883 150.74219 L 91.78125 150.74219 C 87.30425 150.74219 83.677734 147.11467 83.677734 142.63867 C 83.677734 138.16267 87.30425 134.53516 91.78125 134.53516 L 137.64453 134.53516 C 146.40453 134.53516 153.5293 127.37431 153.5293 118.57031 C 153.5293 109.76731 146.40453 102.60547 137.64453 102.60547 L 89.3125 102.60547 z "
     id="path2" />
</svg>
