<?xml version="1.0" encoding="UTF-8" standalone="no"?>
<!-- Generator: Adobe Illustrator 19.0.0, SVG Export Plug-In . SVG Version: 6.00 Build 0)  -->

<svg
   xmlns:dc="http://purl.org/dc/elements/1.1/"
   xmlns:cc="http://creativecommons.org/ns#"
   xmlns:rdf="http://www.w3.org/1999/02/22-rdf-syntax-ns#"
   xmlns:svg="http://www.w3.org/2000/svg"
   xmlns="http://www.w3.org/2000/svg"
   xmlns:sodipodi="http://sodipodi.sourceforge.net/DTD/sodipodi-0.dtd"
   xmlns:inkscape="http://www.inkscape.org/namespaces/inkscape"
   version="1.1"
   id="Capa_1"
   x="0px"
   y="0px"
   viewBox="0 0 512.001 512.001"
   style="enable-background:new 0 0 512.001 512.001;"
   xml:space="preserve"
   sodipodi:docname="sword.svg"
   inkscape:version="0.92.2 5c3e80d, 2017-08-06"><metadata
     id="metadata1246"><rdf:RDF><cc:Work
         rdf:about=""><dc:format>image/svg+xml</dc:format><dc:type
           rdf:resource="http://purl.org/dc/dcmitype/StillImage" /></cc:Work></rdf:RDF></metadata><defs
     id="defs1244" /><sodipodi:namedview
     pagecolor="#ffffff"
     bordercolor="#666666"
     borderopacity="1"
     objecttolerance="10"
     gridtolerance="10"
     guidetolerance="10"
     inkscape:pageopacity="0"
     inkscape:pageshadow="2"
     inkscape:window-width="1680"
     inkscape:window-height="1005"
     id="namedview1242"
     showgrid="false"
     inkscape:zoom="0.46093662"
     inkscape:cx="256.00049"
     inkscape:cy="256.00049"
     inkscape:window-x="0"
     inkscape:window-y="1"
     inkscape:window-maximized="1"
     inkscape:current-layer="Capa_1" /><path
     d="M 497.48633 0 C 496.25179 -0.0088476563 495.01595 0.176625 493.81445 0.578125 L 387.91211 21.878906 C 384.91311 22.477906 382.21328 23.679297 380.11328 25.779297 L 206.10547 200.03906 L 224.72852 217.99805 L 248.51758 217.99805 C 255.48658 217.99805 262.0103 220.39047 267.9043 223.23047 L 451.51367 39.878906 L 477.61328 34.478516 L 472.21289 61.177734 L 289.00781 244.38477 C 291.81481 250.25177 293.11328 256.73511 293.11328 263.66211 L 293.11328 287.45117 L 312.05273 305.98633 L 486.31445 131.97852 C 488.41245 129.87852 489.91467 127.17873 490.51367 124.17773 L 510.91211 20.976562 C 514.69998 9.6260625 506.12809 0.061933594 497.48633 0 z M 142.44922 197.46289 C 130.92447 197.46652 119.39981 201.858 110.63281 210.625 L 68.210938 253.0625 C 62.351937 258.9185 62.351938 268.40953 68.210938 274.26953 C 84.792938 290.86653 108.49367 298.58672 131.63867 295.26172 L 142.44922 306.08594 L 133.96289 314.57227 C 117.70789 320.48827 103.57478 328.7482 90.675781 339.1582 L 90.712891 339.19531 C 81.941891 346.38131 77.220906 350.9752 69.503906 360.4082 L 69.46875 360.37305 C 60.94575 370.74905 53.245375 383.43125 47.484375 397.15625 L 45.169922 397.15625 C 20.355922 397.15625 0.16992188 417.34225 0.16992188 442.15625 L 0.16992188 467 C 0.16992188 491.814 20.355922 512 45.169922 512 L 70.027344 512 C 94.841344 512 115.02734 491.814 115.02734 467 L 115.02734 464.69727 C 128.55334 459.02627 140.53564 451.8237 151.80664 442.7207 L 151.77344 442.6875 C 161.89944 434.3965 165.56828 430.54142 172.98828 421.48242 L 173.01758 421.51172 C 183.68558 408.31672 191.83023 394.09184 197.61523 378.21484 L 206.0957 369.7207 L 216.92188 380.54688 C 213.65488 403.73487 221.31611 427.39261 237.91211 443.97461 C 243.77111 449.83361 253.26405 449.83361 259.12305 443.97461 L 301.54492 401.55273 C 319.09392 384.00373 319.09392 355.4523 301.54492 337.9043 L 264.11328 299.87891 L 264.11328 263.00195 C 264.11328 254.71095 256.80858 248.00195 248.51758 248.00195 L 212.30664 248.00195 L 174.26562 210.625 C 165.49863 201.8435 153.97397 197.45927 142.44922 197.46289 z M 45.166016 426.95508 L 51.392578 426.95508 L 85.125 460.78906 L 85.125 467 L 85.126953 467 C 85.126953 475.276 78.301391 482 70.025391 482 L 45.166016 482 C 36.890016 482 30.066406 475.276 30.066406 467 L 30.066406 442.15625 C 30.066406 433.88025 36.890016 426.95508 45.166016 426.95508 z "
     id="path1199" /></svg>